<?xml version="1.0" encoding="UTF-8" standalone="no"?>
<svg
   width="24"
   height="24"
   viewBox="0 0 24 24"
   fill="currentColor"
   class="icon icon-tabler icons-tabler-filled icon-tabler-circle-arrow-up"
   version="1.1"
   id="svg2"
   sodipodi:docname="arrow-down-filled.svg"
   inkscape:version="1.4.2 (f4327f4, 2025-05-13)"
   xmlns:inkscape="http://www.inkscape.org/namespaces/inkscape"
   xmlns:sodipodi="http://sodipodi.sourceforge.net/DTD/sodipodi-0.dtd"
   xmlns="http://www.w3.org/2000/svg"
   xmlns:svg="http://www.w3.org/2000/svg">
  <defs
     id="defs2" />
  <sodipodi:namedview
     id="namedview2"
     pagecolor="#ffffff"
     bordercolor="#000000"
     borderopacity="0.25"
     inkscape:showpageshadow="2"
     inkscape:pageopacity="0.0"
     inkscape:pagecheckerboard="0"
     inkscape:deskcolor="#d1d1d1"
     inkscape:zoom="48.625"
     inkscape:cx="12"
     inkscape:cy="12"
     inkscape:window-width="2560"
     inkscape:window-height="1369"
     inkscape:window-x="1358"
     inkscape:window-y="-8"
     inkscape:window-maximized="1"
     inkscape:current-layer="svg2" />
  <path
     stroke="none"
     d="M0 0h24v24H0z"
     fill="none"
     id="path1" />
  <path
     d="m 17,20.660219 a 10,10 0 1 0 -14.995,-8.984 l -0.005,0.324 0.005,0.324 a 10,10 0 0 0 14.995,8.336 z m -4.98,-3.66 -0.163,-0.01 -0.086,-0.016 -0.142,-0.045 -0.113,-0.054 -0.07,-0.043 -0.095,-0.071 -0.058,-0.054 -4,-4 -0.083,-0.094 a 1,1 0 0 1 1.497,-1.32 l 2.293,2.293 V 8.0002193 l 0.007,-0.117 a 1,1 0 0 1 1.993,0.117 v 5.5849997 l 2.293,-2.292 0.094,-0.083 a 1,1 0 0 1 1.32,1.497 l -4,4 -0.082,0.073 -0.089,0.064 -0.113,0.062 -0.081,0.034 -0.113,0.034 -0.112,0.02 -0.098,0.006 z"
     id="path2" />
</svg>
